<svg width="169" height="8" viewBox="0 0 169 8" fill="none" xmlns="http://www.w3.org/2000/svg">
<path id="Arrow 1" d="M1 3.5C0.723858 3.5 0.5 3.72386 0.5 4C0.5 4.27614 0.723858 4.5 1 4.5V3.5ZM168.357 4.35355C168.552 4.15829 168.552 3.84171 168.357 3.64645L165.175 0.464466C164.979 0.269204 164.663 0.269204 164.467 0.464466C164.272 0.659728 164.272 0.976311 164.467 1.17157L167.296 4L164.467 6.82843C164.272 7.02369 164.272 7.34027 164.467 7.53553C164.663 7.7308 164.979 7.7308 165.175 7.53553L168.357 4.35355ZM1 4.5H168.003V3.5H1V4.5Z" fill="#060050"/>
</svg>
